<svg width="50" height="50" viewBox="0 0 50 50" fill="none" xmlns="http://www.w3.org/2000/svg">
<g clip-path="url(#clip0_309_555)">
<path d="M24.4069 20.8838C24.8489 21.1753 24.9464 21.6027 25.0593 22.1001C25.079 22.1857 25.0988 22.2712 25.1186 22.3568C25.1235 22.378 25.1285 22.3993 25.1336 22.4213C25.1786 22.6146 25.2286 22.8065 25.2795 22.9984C25.335 23.2088 25.389 23.4196 25.4432 23.6303C25.458 23.6876 25.4728 23.7449 25.4877 23.8022C25.5094 23.8862 25.5311 23.9703 25.5527 24.0543C25.5626 24.0924 25.5626 24.0924 25.5727 24.1314C25.6799 24.5494 25.6892 24.9014 25.4909 25.2906C25.3483 25.5151 25.1221 25.6528 24.8752 25.7268C24.8392 25.7377 24.8032 25.7487 24.7661 25.7599C24.7273 25.7714 24.6885 25.7829 24.6497 25.7945C24.6094 25.8066 24.5692 25.8187 24.5289 25.8309C24.4093 25.867 24.2895 25.9026 24.1696 25.9382C24.137 25.9479 24.1043 25.9576 24.0707 25.9676C23.9532 26.0025 23.8358 26.0373 23.7183 26.0721C23.519 26.1313 23.3206 26.1931 23.1224 26.256C22.7264 26.3817 22.3285 26.5002 21.9306 26.6192C21.4785 26.7545 21.0269 26.8908 20.577 27.0335C20.0322 27.2062 19.4847 27.3697 18.9373 27.5333C18.6334 27.6242 18.3304 27.7177 18.028 27.8136C17.7411 27.9042 17.4529 27.9904 17.1647 28.0764C16.8893 28.1587 16.6145 28.2424 16.3404 28.3293C16.023 28.4299 15.7043 28.526 15.3853 28.6212C15.1099 28.7035 14.8351 28.7872 14.5611 28.8741C14.2239 28.9809 13.8854 29.083 13.5465 29.1839C13.2815 29.2628 13.0174 29.344 12.7534 29.4263C12.4215 29.5296 12.0891 29.6312 11.7567 29.7329C11.6582 29.763 11.5597 29.7931 11.4612 29.8233C11.3967 29.843 11.3322 29.8627 11.2677 29.8825C11.093 29.9359 10.9185 29.9894 10.7439 30.043C10.3418 30.1665 9.93918 30.2882 9.53617 30.4087C9.23235 30.4996 8.92943 30.593 8.62707 30.6889C8.34014 30.7795 8.05199 30.8657 7.76372 30.9517C7.48833 31.034 7.21352 31.1177 6.93949 31.2046C6.62204 31.3052 6.3034 31.4013 5.98436 31.4965C5.70897 31.5788 5.43416 31.6625 5.16013 31.7494C4.75902 31.8764 4.35605 31.9968 3.95297 32.1172C3.81163 32.1594 3.67041 32.2021 3.52928 32.2451C3.47417 32.2619 3.47417 32.2619 3.41795 32.279C3.3493 32.2999 3.28067 32.3208 3.21205 32.3419C3.1816 32.3511 3.15115 32.3604 3.11978 32.3699C3.09342 32.378 3.06707 32.3861 3.03992 32.3944C2.54256 32.5339 2.01592 32.4738 1.56434 32.2298C1.10741 31.9397 0.984284 31.507 0.861866 30.9984C0.850836 30.9535 0.839777 30.9086 0.828691 30.8637C0.803773 30.7627 0.778997 30.6617 0.754291 30.5606C0.706632 30.3661 0.658056 30.1719 0.609443 29.9776C0.59138 29.9054 0.573318 29.8332 0.555257 29.761C0.546217 29.7249 0.537177 29.6888 0.527863 29.6515C0.40041 29.1418 0.273107 28.6319 0.149471 28.1212C0.142537 28.0926 0.135603 28.0641 0.12846 28.0347C0.122042 28.0081 0.115624 27.9816 0.109012 27.9542C0.0951324 27.8996 0.0802641 27.8452 0.0646152 27.7911C0.0109883 27.605 -0.0162687 27.4356 -0.0148391 27.2416C-0.014734 27.2155 -0.0146289 27.1893 -0.0145205 27.1624C-0.00894323 26.9422 0.0395476 26.7656 0.148269 26.5738C0.166618 26.5414 0.184968 26.5089 0.203874 26.4755C0.235068 26.4343 0.235068 26.4343 0.266893 26.3922C0.281114 26.3734 0.295335 26.3545 0.309987 26.3351C0.443364 26.1682 0.593002 26.0522 0.771045 25.9382C0.792866 25.9239 0.814687 25.9096 0.83717 25.8948C1.16237 25.7061 1.53587 25.6549 1.89797 25.5788C1.97171 25.5629 2.04543 25.547 2.11914 25.531C2.26523 25.4994 2.41135 25.468 2.55751 25.4367C2.79454 25.3858 3.03089 25.332 3.26715 25.2776C3.64149 25.1913 4.01668 25.1103 4.39273 25.0323C4.71049 24.9663 5.02724 24.8966 5.34363 24.8241C5.76377 24.7278 6.1846 24.6352 6.60586 24.5441C7.08933 24.4395 7.57242 24.3335 8.0551 24.2252C8.33621 24.1621 8.61742 24.0996 8.89864 24.0371C8.92728 24.0308 8.95592 24.0244 8.98543 24.0178C9.46678 23.911 9.94853 23.8061 10.4304 23.7018C10.791 23.6238 11.1511 23.5445 11.5107 23.4619C11.7899 23.3981 12.0698 23.3383 12.3499 23.2786C12.7162 23.2004 13.0819 23.12 13.4471 23.0364C13.8648 22.9409 14.2832 22.8489 14.7019 22.7584C15.3354 22.6213 15.9684 22.4822 16.6003 22.3377C16.6904 22.3171 16.7805 22.2966 16.8705 22.276C16.8929 22.2709 16.9153 22.2658 16.9383 22.2605C17.2832 22.182 17.6288 22.1078 17.9751 22.036C18.2898 21.9706 18.6035 21.9015 18.9168 21.8296C19.3621 21.7274 19.8084 21.6304 20.255 21.5345C20.7143 21.4359 21.1731 21.3359 21.6309 21.2309C22.0949 21.1245 22.5601 21.024 23.0255 20.9238C23.0544 20.9176 23.0833 20.9113 23.1131 20.9049C23.1672 20.8933 23.2213 20.8816 23.2754 20.87C23.3903 20.8453 23.5045 20.8193 23.6182 20.7896C23.8939 20.72 24.1588 20.7405 24.4069 20.8838Z" fill="#989898"/>
<path d="M30.0119 28.3594C30.0584 28.3776 30.105 28.3956 30.1516 28.4136C30.2509 28.4519 30.35 28.4906 30.4491 28.5296C30.597 28.5874 30.7456 28.6434 30.8944 28.6991C30.9409 28.7166 30.9874 28.734 31.0339 28.7515C31.1033 28.7775 31.1727 28.8035 31.2422 28.8293C32.0597 29.1328 32.0597 29.1328 32.2474 29.4987C32.4046 29.8914 32.2945 30.2199 32.1601 30.5991C32.1426 30.6495 32.1253 30.6998 32.108 30.7502C32.0712 30.8568 32.0342 30.9633 31.997 31.0697C31.9392 31.235 31.8827 31.4008 31.8263 31.5666C31.6873 31.9755 31.5481 32.3843 31.4055 32.7919C31.3986 32.8116 31.3917 32.8313 31.3846 32.8516C31.3644 32.9092 31.3443 32.9667 31.3241 33.0242C31.194 33.396 31.0704 33.7697 30.9494 34.1446C30.8875 34.3364 30.8237 34.5267 30.7533 34.7154C30.7187 34.8154 30.6851 34.9158 30.6513 35.0161C30.5576 35.2933 30.4601 35.569 30.3613 35.8443C30.2429 36.1741 30.1275 36.5042 30.0203 36.8379C29.9186 37.1532 29.8114 37.4665 29.7042 37.7798C29.6945 37.8082 29.6848 37.8365 29.6748 37.8657C29.5444 38.2466 29.4123 38.6268 29.2787 39.0065C29.2118 39.1972 29.147 39.3883 29.0851 39.5807C28.9846 39.8929 28.8783 40.2031 28.7719 40.5133C28.7628 40.5396 28.7538 40.566 28.7444 40.5932C28.6307 40.9246 28.5157 41.2554 28.3993 41.5858C28.2986 41.872 28.2021 42.1594 28.1087 42.4481C27.9739 42.8644 27.8296 43.277 27.6839 43.6893C27.5385 44.1007 27.3962 44.5131 27.2578 44.927C27.2462 44.9615 27.2462 44.9615 27.2344 44.9968C27.1853 45.1437 27.1853 45.1437 27.1363 45.2905C27.0044 45.6847 26.8702 46.0781 26.7345 46.4709C26.6297 46.7742 26.5259 47.0777 26.4235 47.3818C26.3998 47.4518 26.3762 47.5218 26.3525 47.5918C26.3109 47.7148 26.2695 47.8378 26.2284 47.9609C26.1865 48.0863 26.1443 48.2115 26.1019 48.3367C26.0855 48.3853 26.0693 48.4339 26.0531 48.4826C25.8701 49.0339 25.645 49.5573 25.1186 49.8485C25.0946 49.8632 25.0705 49.8779 25.0458 49.893C24.8573 49.992 24.6859 50.0114 24.4781 50.01C24.45 50.0099 24.4218 50.0098 24.3928 50.0097C24.007 50.0035 23.6253 49.9504 23.2429 49.9015C23.1638 49.8916 23.0847 49.8818 23.0056 49.872C22.8884 49.8575 22.7711 49.8429 22.6539 49.8282C22.4372 49.8009 22.2205 49.775 22.0034 49.7512C21.9569 49.7461 21.9105 49.7409 21.864 49.7357C21.7834 49.7267 21.7028 49.7182 21.6221 49.7099C21.2891 49.6721 20.9516 49.6115 20.7295 49.334C20.6052 49.1281 20.5474 48.953 20.5442 48.7117C20.5434 48.6773 20.5427 48.6429 20.5419 48.6075C20.5575 48.2709 20.7159 47.9486 20.8389 47.641C20.8578 47.5932 20.8768 47.5453 20.8957 47.4975C20.9326 47.4042 20.9697 47.3109 21.0068 47.2176C21.0644 47.0727 21.1213 46.9275 21.1781 46.7822C21.1962 46.7359 21.2144 46.6896 21.2325 46.6433C21.242 46.6192 21.2514 46.5951 21.2611 46.5703C21.2987 46.4744 21.3363 46.3786 21.3739 46.2827C21.3811 46.2643 21.3883 46.2459 21.3957 46.2269C21.4336 46.1303 21.4715 46.0336 21.5093 45.937C21.5786 45.7604 21.6478 45.5837 21.7169 45.407C21.8648 45.0288 22.0132 44.6508 22.1641 44.2739C22.3429 43.8274 22.5181 43.3794 22.6933 42.9315C22.7442 42.8014 22.7951 42.6714 22.8461 42.5413C22.8543 42.5204 22.8626 42.4994 22.871 42.4778C22.8961 42.4138 22.9212 42.3498 22.9463 42.2857C23.051 42.0187 23.1557 41.7516 23.2602 41.4845C23.6941 40.3756 23.6941 40.3756 23.9074 39.8434C24.1276 39.2932 24.344 38.7413 24.5543 38.1871C24.6186 38.0182 24.6858 37.8508 24.7543 37.6836C24.818 37.5282 24.8803 37.3722 24.9425 37.2161C24.9565 37.1811 24.9705 37.146 24.9849 37.1099C25.1348 36.7338 25.2824 36.3568 25.4298 35.9798C25.5026 35.7935 25.5757 35.6072 25.6487 35.421C25.735 35.201 25.8212 34.981 25.9072 34.761C25.9514 34.648 25.9956 34.5351 26.0398 34.4222C26.0486 34.3998 26.0573 34.3775 26.0663 34.3544C26.1959 34.0234 26.3273 33.6932 26.4598 33.3634C26.5532 33.1301 26.6427 32.8954 26.7283 32.659C26.7749 32.5314 26.8254 32.4072 26.8815 32.2837C26.9606 32.1088 27.0263 31.9302 27.0907 31.7493C27.1539 31.5721 27.2177 31.3969 27.2954 31.2259C27.3808 31.038 27.4545 30.8459 27.5281 30.653C27.5701 30.5431 27.6123 30.4332 27.6546 30.3233C27.6675 30.2897 27.6675 30.2897 27.6806 30.2555C27.8229 29.8849 27.9682 29.5156 28.1139 29.1464C28.1251 29.1178 28.1364 29.0892 28.148 29.0597C28.1766 28.987 28.2054 28.9144 28.2344 28.8418C28.2421 28.822 28.2499 28.8022 28.258 28.7818C28.3007 28.6754 28.3459 28.575 28.4104 28.4805C28.43 28.4805 28.4496 28.4805 28.4697 28.4805C28.4766 28.4625 28.4834 28.4445 28.4904 28.426C28.5394 28.3416 28.5907 28.3118 28.6736 28.263C28.6992 28.2476 28.7249 28.2321 28.7513 28.2163C29.1622 28.004 29.6208 28.2013 30.0119 28.3594Z" fill="#BDBDBD"/>
<path d="M10.0238 4.08577C10.0443 4.09838 10.0648 4.11099 10.086 4.12398C10.2185 4.20567 10.3504 4.28843 10.4822 4.37141C10.6238 4.46024 10.7659 4.54817 10.9079 4.63624C11.0818 4.74406 11.2554 4.85221 11.4286 4.96113C11.6247 5.08437 11.8213 5.20665 12.0181 5.32858C12.0358 5.33951 12.0534 5.35043 12.0716 5.36169C12.363 5.54226 12.6551 5.72151 12.9476 5.90029C13.188 6.04732 13.4269 6.19662 13.665 6.34747C13.8792 6.48267 14.0948 6.61524 14.3109 6.74731C14.587 6.91607 14.8625 7.08566 15.1376 7.25617C15.164 7.27257 15.164 7.27257 15.191 7.28931C15.4224 7.43278 15.6535 7.57675 15.8844 7.72107C16.0706 7.83731 16.2579 7.9518 16.4452 8.06622C16.6339 8.18159 16.8217 8.29835 17.0093 8.41567C17.1819 8.52356 17.3553 8.63001 17.5292 8.73579C17.6459 8.80724 17.7617 8.88027 17.8775 8.95316C18.0573 9.06618 18.2377 9.17797 18.4183 9.28969C18.4542 9.31196 18.4902 9.33424 18.5262 9.35652C18.6007 9.40265 18.6752 9.44876 18.7496 9.49487C18.9284 9.60551 19.107 9.71621 19.2857 9.82692C19.303 9.83762 19.3203 9.84832 19.3381 9.85935C19.5728 10.0048 19.8074 10.1503 20.0419 10.296C20.0694 10.3131 20.097 10.3302 20.1253 10.3478C20.2658 10.4352 20.4063 10.5225 20.5468 10.6099C20.8351 10.7893 21.1239 10.968 21.4137 11.145C21.6725 11.3033 21.9303 11.4632 22.1881 11.6232C22.3625 11.7314 22.5371 11.8392 22.7121 11.9462C22.7961 11.9977 22.8796 12.05 22.9631 12.1026C22.9959 12.1232 23.0288 12.1439 23.0627 12.1652C23.1254 12.2048 23.1881 12.2443 23.2508 12.2839C23.5961 12.5017 23.9448 12.7138 24.2933 12.9261C24.5463 13.0805 24.7985 13.2359 25.0478 13.3966C25.1536 13.4647 25.2603 13.5299 25.3689 13.5932C25.6033 13.7364 25.8228 13.9144 25.9065 14.1894C25.9678 14.5034 25.9096 14.7197 25.7414 14.9817C25.7196 15.0176 25.6978 15.0537 25.6761 15.0898C25.6001 15.2159 25.5226 15.341 25.4449 15.4659C25.3849 15.5624 25.325 15.6588 25.2651 15.7553C25.2501 15.7794 25.2351 15.8035 25.2197 15.8284C25.1143 15.9986 25.0115 16.1703 24.9119 16.3442C24.7642 16.5999 24.6243 16.8097 24.3387 16.9131C23.9262 17.0171 23.5751 16.8911 23.2207 16.6766C23.1507 16.6356 23.0806 16.5948 23.0104 16.5541C22.9294 16.507 22.8485 16.4597 22.7676 16.4123C22.6278 16.3306 22.4875 16.2497 22.347 16.169C22.052 15.9995 21.7588 15.8272 21.4667 15.6526C21.2459 15.5207 21.024 15.3908 20.8016 15.2616C20.6469 15.1717 20.4933 15.0802 20.3403 14.9873C20.103 14.8435 19.8614 14.7076 19.6198 14.5714C19.411 14.4536 19.2039 14.3342 19.0004 14.207C18.8306 14.1016 18.6569 14.0037 18.4831 13.9053C18.2161 13.7539 17.9521 13.598 17.6898 13.4381C17.398 13.2602 17.1036 13.088 16.8064 12.9195C16.6349 12.8222 16.4646 12.7233 16.296 12.6209C16.0936 12.4979 15.8884 12.3803 15.6825 12.2634C15.4451 12.1285 15.2096 11.9911 14.9763 11.8491C14.7503 11.7115 14.5224 11.5784 14.2924 11.4481C13.9957 11.2799 13.7025 11.1063 13.4102 10.9304C13.1738 10.7882 12.9365 10.6487 12.696 10.5139C12.5321 10.4219 12.3708 10.3256 12.2099 10.2281C12.0386 10.1247 11.8655 10.0247 11.6919 9.92528C11.4281 9.774 11.1667 9.61876 10.906 9.46183C10.5917 9.2726 10.2747 9.08956 9.95502 8.90985C9.71914 8.77688 9.48657 8.63908 9.25522 8.4981C9.05773 8.378 8.85824 8.26193 8.65774 8.14713C8.44877 8.02748 8.24215 7.90609 8.04006 7.7746C7.93182 7.70784 7.8212 7.64655 7.71001 7.58509C7.286 7.35021 6.86653 7.10707 6.45226 6.85476C6.31824 6.77317 6.18371 6.69326 6.04704 6.61637C5.77919 6.46491 5.52992 6.30163 5.42709 5.99255C5.39642 5.81356 5.40015 5.65043 5.48826 5.48937C5.61868 5.31753 5.80193 5.21063 5.98065 5.09808C6.05562 5.05065 6.12993 5.00227 6.20417 4.95368C6.36983 4.84535 6.536 4.73787 6.7023 4.63056C6.72711 4.61455 6.75191 4.59853 6.77747 4.58203C6.91669 4.49216 7.05599 4.40241 7.19533 4.31272C7.26949 4.26497 7.34362 4.21717 7.41775 4.16935C7.45544 4.14505 7.45544 4.14505 7.4939 4.12025C7.54151 4.08954 7.58911 4.05883 7.63672 4.02812C7.67996 4.00024 7.72323 3.97241 7.76653 3.94465C7.80874 3.91739 7.85075 3.88981 7.89256 3.86192C8.05463 3.75494 8.20364 3.70253 8.39269 3.66204C8.4133 3.65732 8.4339 3.6526 8.45513 3.64773C9.01673 3.55128 9.55758 3.79783 10.0238 4.08577Z" fill="#BDBDBD"/>
<path d="M38.8067 28.7796C38.8724 28.8185 38.9344 28.8614 38.9976 28.9045C38.9976 28.9244 38.9976 28.9444 38.9976 28.965C39.027 28.975 39.0564 28.985 39.0866 28.9953C39.1926 29.1342 39.2542 29.2849 39.3183 29.4474C39.3979 29.6448 39.4807 29.8395 39.5701 30.0325C39.8739 30.6889 40.1548 31.3567 40.4434 32.0202C40.654 32.5044 40.8655 32.9881 41.0796 33.4707C41.1996 33.7416 41.3175 34.0133 41.4331 34.2862C41.5272 34.5082 41.624 34.7282 41.7252 34.9468C41.8091 35.1298 41.8897 35.3144 41.9706 35.4987C41.979 35.5177 41.9873 35.5366 41.9958 35.5561C42.1257 35.8521 42.2541 36.1488 42.3817 36.4458C42.5179 36.7622 42.6569 37.0772 42.7966 37.392C42.9276 37.6875 43.0567 37.9837 43.1828 38.2814C43.2769 38.5033 43.3737 38.7233 43.4749 38.942C43.7707 39.5866 44.0487 40.2409 44.3256 40.8942C44.487 41.2751 44.487 41.2751 44.6564 41.6523C44.6806 41.7052 44.6806 41.7052 44.7054 41.7593C44.7351 41.824 44.7651 41.8885 44.7955 41.9529C44.9353 42.2654 44.9676 42.5642 44.8711 42.8963C44.7707 43.1596 44.5755 43.2965 44.3553 43.4565C44.2707 43.5189 44.1884 43.5845 44.1059 43.6498C44.0737 43.6751 44.0416 43.7004 44.0094 43.7256C43.9547 43.7686 43.9001 43.8117 43.8456 43.855C43.8244 43.8716 43.8033 43.8881 43.7815 43.9052C43.7637 43.9193 43.7458 43.9335 43.7274 43.948C43.6833 43.9771 43.6833 43.9771 43.624 43.9771C43.624 43.9971 43.624 44.017 43.624 44.0376C43.5612 44.0899 43.5612 44.0899 43.4794 44.1473C43.4526 44.1665 43.4257 44.1856 43.3981 44.2053C43.3274 44.2495 43.3274 44.2495 43.2681 44.2495C43.2681 44.2695 43.2681 44.2894 43.2681 44.31C43.0989 44.4459 42.9225 44.5372 42.7046 44.5219C42.5011 44.4938 42.3914 44.3985 42.2606 44.2428C42.1502 44.0884 42.0808 43.9156 42.0077 43.7406C41.9901 43.6995 41.9724 43.6585 41.9547 43.6174C41.9172 43.5303 41.88 43.4432 41.843 43.3559C41.785 43.2194 41.7259 43.0834 41.6666 42.9475C41.6566 42.9248 41.6467 42.9021 41.6365 42.8787C41.6165 42.8328 41.5964 42.7868 41.5763 42.7409C41.5362 42.6489 41.4962 42.5569 41.4562 42.4648C41.3724 42.272 41.2883 42.0793 41.2034 41.8869C41.1949 41.8677 41.1865 41.8485 41.1777 41.8287C41.161 41.7908 41.1443 41.753 41.1276 41.7152C41.0024 41.4313 40.8788 41.1471 40.7632 40.8591C40.7226 40.7585 40.6802 40.6602 40.6318 40.5633C40.5543 40.4076 40.4863 40.2477 40.4174 40.0879C40.386 40.0155 40.3547 39.9431 40.3232 39.8707C40.3148 39.8512 40.3063 39.8317 40.2976 39.8117C40.1675 39.5123 40.0352 39.2139 39.9032 38.9155C39.7814 38.64 39.6604 38.3643 39.5421 38.0872C39.4768 37.9344 39.41 37.7824 39.3424 37.6306C39.2483 37.4186 39.1573 37.2054 39.0681 36.9912C38.9799 36.7798 38.8881 36.5708 38.7919 36.363C38.7075 36.1793 38.6266 35.9941 38.5454 35.809C38.5329 35.7806 38.5329 35.7806 38.5202 35.7516C38.3903 35.4555 38.2619 35.1588 38.1342 34.8617C38.0413 34.6456 37.9467 34.4302 37.8513 34.2152C37.7537 33.9944 37.6592 33.7723 37.5656 33.5497C37.4988 33.3916 37.4295 33.235 37.3578 33.0792C37.2375 32.8178 37.1222 32.5543 37.007 32.2905C36.9625 32.1888 36.918 32.0871 36.8735 31.9854C36.8625 31.9602 36.8515 31.935 36.8402 31.9091C36.7627 31.732 36.6848 31.5552 36.6067 31.3784C36.5364 31.2196 36.467 31.0605 36.3978 30.9012C36.3621 30.82 36.3254 30.7394 36.2884 30.6588C36.1561 30.3645 36.0853 30.091 36.1706 29.767C36.2575 29.5616 36.4286 29.4322 36.6278 29.3512C36.6855 29.3299 36.7433 29.309 36.8012 29.2885C36.8648 29.2651 36.9283 29.2417 36.9918 29.2184C37.0243 29.2066 37.0568 29.1948 37.0902 29.1826C37.2179 29.1358 37.3449 29.087 37.4718 29.038C37.5613 29.0035 37.651 28.9694 37.7407 28.9353C37.8359 28.8991 37.9306 28.8622 38.0248 28.8235C38.2851 28.7198 38.5429 28.6496 38.8067 28.7796Z" fill="#7C7C7C"/>
<path d="M23.9253 -0.0128163C23.9655 -0.0126666 24.0056 -0.0125672 24.0458 -0.0125147C24.1516 -0.0122252 24.2574 -0.0111866 24.3632 -0.0100065C24.447 -0.00919734 24.5308 -0.00892588 24.6145 -0.00868297C24.8815 -0.00789897 25.1483 -0.00457098 25.4152 7.05663e-05C25.4455 0.000561724 25.4455 0.000561724 25.4765 0.0010628C25.6138 0.00331948 25.7511 0.00649706 25.8884 0.0101199C25.9231 0.0107629 25.9578 0.0114059 25.9936 0.0120684C26.377 0.0240951 26.7475 0.134563 27.024 0.420016C27.1629 0.592103 27.2367 0.793348 27.3179 0.997944C27.3554 1.09046 27.3973 1.18074 27.4392 1.27126C27.5455 1.50158 27.6493 1.73307 27.7529 1.96466C27.826 2.12762 27.8996 2.29027 27.9739 2.45259C28.1124 2.7547 28.2489 3.05766 28.3857 3.36054C28.4199 3.43622 28.4541 3.5119 28.4883 3.58758C28.5049 3.62431 28.5049 3.62431 28.5218 3.66179C28.582 3.79492 28.6426 3.92784 28.7037 4.06054C28.793 4.25462 28.878 4.45002 28.9591 4.64785C29.0495 4.86618 29.1463 5.07818 29.2523 5.28911C29.3175 5.42313 29.3738 5.56037 29.4306 5.69829C29.4748 5.80461 29.5221 5.90929 29.5703 6.01385C29.5887 6.05392 29.6071 6.09398 29.6255 6.13405C29.6352 6.15526 29.645 6.17646 29.655 6.19831C29.7095 6.31723 29.7636 6.43635 29.8177 6.55545C29.8292 6.58065 29.8406 6.60584 29.8524 6.63179C30.1719 7.33495 30.4908 8.03821 30.8007 8.74585C30.9059 8.98616 31.0127 9.22549 31.1228 9.46351C31.1745 9.57763 31.2235 9.69281 31.2722 9.80826C31.3376 9.96287 31.4069 10.114 31.4817 10.2641C31.5681 10.4378 31.6459 10.6136 31.7194 10.7933C31.7472 10.8609 31.7759 10.9281 31.8056 10.9948C31.9006 11.2116 31.9569 11.3652 31.8765 11.5978C31.7175 11.8411 31.5132 11.889 31.2446 11.947C31.1265 11.9701 31.0083 11.992 30.8898 12.0133C30.846 12.0213 30.8021 12.0293 30.7582 12.0374C30.6667 12.054 30.5752 12.0706 30.4836 12.087C30.3673 12.1079 30.2511 12.1293 30.1349 12.1508C30.0444 12.1675 29.9539 12.1839 29.8634 12.2002C29.8205 12.2079 29.7777 12.2158 29.7349 12.2237C29.2809 12.308 28.8504 12.3552 28.4475 12.082C28.1968 11.8655 28.0754 11.4915 27.9531 11.19C27.9085 11.0815 27.8601 10.975 27.811 10.8685C27.7357 10.7051 27.6615 10.5412 27.5884 10.3767C27.5792 10.356 27.57 10.3353 27.5605 10.3139C27.523 10.2296 27.4856 10.1452 27.4482 10.0608C27.2833 9.68928 27.1161 9.31897 26.9437 8.95102C26.8407 8.7311 26.7413 8.5101 26.6466 8.28632C26.5813 8.13223 26.5122 7.98015 26.442 7.82833C26.3788 7.69114 26.3191 7.55265 26.2604 7.41343C26.1979 7.26584 26.1322 7.12145 26.0602 6.97835C25.9462 6.74986 25.8464 6.51544 25.7465 6.28023C25.6486 6.05032 25.5461 5.82286 25.4416 5.59606C25.3991 5.50386 25.3568 5.41156 25.3145 5.31926C25.298 5.2832 25.2815 5.24713 25.2644 5.20997C25.0487 4.73911 24.8367 4.26662 24.6274 3.79276C24.6 3.73075 24.5726 3.66874 24.5451 3.60672C24.5097 3.52661 24.4744 3.44647 24.439 3.36632C24.3449 3.15295 24.2491 2.94045 24.1517 2.72856C24.0911 2.5962 24.033 2.46309 23.9769 2.32869C23.9145 2.18106 23.8487 2.0367 23.7767 1.89361C23.6609 1.66151 23.5596 1.42329 23.4579 1.18444C23.3731 0.985121 23.2853 0.788513 23.1888 0.594757C23.1407 0.45435 23.1441 0.340137 23.2058 0.20626C23.4084 -0.026305 23.6397 -0.0168429 23.9253 -0.0128163Z" fill="#7C7C7C"/>
<path d="M42.1199 23.4264C42.1734 23.456 42.2263 23.4868 42.2788 23.5184C42.3996 23.5903 42.5231 23.6557 42.6472 23.7215C42.8993 23.8563 43.1484 23.9961 43.3967 24.138C43.4875 24.1897 43.5785 24.2411 43.6695 24.2924C44.2715 24.6321 44.2715 24.6321 44.5489 24.8016C44.6986 24.893 44.8498 24.9771 45.0067 25.0551C45.4046 25.2528 45.7855 25.4847 46.1675 25.7123C46.4158 25.8603 46.4158 25.8603 46.6711 25.9952C46.8701 26.0938 47.0609 26.2066 47.2531 26.3182C47.5309 26.4795 47.8107 26.6371 48.0909 26.794C48.3025 26.9127 48.5126 27.0336 48.7216 27.1569C48.8055 27.2049 48.89 27.2488 48.9769 27.291C49.1598 27.3826 49.335 27.4867 49.5107 27.5918C49.5394 27.6088 49.5681 27.6259 49.5977 27.6434C49.6386 27.6681 49.6386 27.6681 49.6803 27.6932C49.7047 27.7079 49.7292 27.7226 49.7544 27.7377C49.88 27.8249 49.9576 27.9063 50 28.0571C50.0451 28.4715 49.948 28.8497 49.8443 29.247C49.8296 29.3057 49.8148 29.3644 49.8002 29.4232C49.5943 30.241 49.5943 30.241 49.4662 30.3876C49.4466 30.3876 49.4271 30.3876 49.4069 30.3876C49.4069 30.4076 49.4069 30.4276 49.4069 30.4482C49.2818 30.512 49.1167 30.4988 48.9853 30.4581C48.9209 30.4292 48.8593 30.3973 48.7974 30.3633C48.7745 30.3513 48.7516 30.3394 48.728 30.3271C48.6543 30.2885 48.5812 30.2492 48.5079 30.2098C48.4571 30.1831 48.4063 30.1564 48.3554 30.1298C48.256 30.0778 48.1566 30.0255 48.0573 29.9731C47.8972 29.8889 47.7351 29.8091 47.5719 29.7312C47.3408 29.6202 47.1118 29.5054 46.8837 29.3879C46.7858 29.3375 46.6877 29.2875 46.5896 29.2375C46.55 29.2173 46.5105 29.1972 46.471 29.177C46.4514 29.167 46.4318 29.157 46.4116 29.1467C46.3523 29.1164 46.293 29.0862 46.2337 29.0559C46.2152 29.0465 46.1967 29.037 46.1777 29.0273C46.1383 29.0072 46.0989 28.9871 46.0594 28.967C45.962 28.9173 45.8646 28.8675 45.7671 28.8178C45.588 28.7265 45.409 28.6351 45.2302 28.5434C44.8245 28.3354 44.4189 28.1277 44.0083 27.9301C43.8555 27.8564 43.7039 27.7805 43.5528 27.7032C43.5103 27.6815 43.4679 27.6598 43.4254 27.6381C43.404 27.6272 43.3827 27.6163 43.3607 27.605C43.2659 27.5566 43.1711 27.5082 43.0763 27.4598C43.0393 27.441 43.0023 27.4221 42.9653 27.4032C42.9466 27.3937 42.928 27.3842 42.9088 27.3744C42.5139 27.1728 42.1189 26.9713 41.724 26.7698C41.7056 26.7604 41.6873 26.751 41.6683 26.7414C41.6322 26.7229 41.5961 26.7045 41.56 26.686C41.4685 26.6391 41.3768 26.5929 41.2846 26.5476C41.2658 26.5382 41.247 26.5289 41.2277 26.5193C41.176 26.4936 41.1241 26.4682 41.0723 26.4428C40.9056 26.3472 40.8085 26.2259 40.7344 26.0482C40.6977 25.8068 40.7122 25.6044 40.7974 25.3767C40.8063 25.3519 40.8151 25.3272 40.8243 25.3016C40.8572 25.2109 40.8911 25.1207 40.9253 25.0305C40.9325 25.0114 40.9398 24.9922 40.9472 24.9725C41.0593 24.6768 41.1729 24.3816 41.2889 24.0875C41.31 24.0338 41.3307 23.9799 41.3514 23.926C41.364 23.8941 41.3765 23.8622 41.3894 23.8293C41.4 23.8017 41.4107 23.7741 41.4217 23.7457C41.5518 23.477 41.8295 23.2965 42.1199 23.4264Z" fill="#BDBDBD"/>
<path d="M46.9751 15.8897C47.2254 16.0892 47.3029 16.4243 47.377 16.7247C47.386 16.7603 47.395 16.796 47.4042 16.8327C47.4231 16.9077 47.4417 16.9828 47.4602 17.0578C47.4884 17.1719 47.5174 17.2857 47.5465 17.3995C47.5648 17.4728 47.583 17.5461 47.6012 17.6194C47.6098 17.653 47.6185 17.6866 47.6273 17.7212C47.688 17.9717 47.736 18.233 47.6479 18.4813C47.5603 18.6071 47.467 18.6281 47.3253 18.6598C47.297 18.6663 47.297 18.6663 47.2682 18.6728C47.2267 18.6823 47.1851 18.6916 47.1436 18.7009C47.0261 18.7273 46.9089 18.7543 46.7916 18.7814C46.7661 18.7872 46.7406 18.7931 46.7144 18.7991C46.3947 18.873 46.076 18.9515 45.7573 19.0299C45.6943 19.0454 45.6312 19.0609 45.5681 19.0764C45.3748 19.1239 45.1814 19.1714 44.9881 19.219C44.7318 19.2822 44.4754 19.3452 44.2189 19.4082C44.188 19.4158 44.1571 19.4234 44.1252 19.4312C43.685 19.5392 43.2444 19.6449 42.8026 19.7461C42.5941 19.7941 42.3863 19.8444 42.179 19.8977C41.9487 19.957 41.718 20.0144 41.487 20.0709C41.437 20.0832 41.387 20.0956 41.337 20.1081C41.2634 20.1265 41.1898 20.1445 41.1161 20.1625C41.094 20.1681 41.0719 20.1737 41.0491 20.1794C40.8843 20.2191 40.7314 20.2437 40.5675 20.1857C40.2742 19.9882 40.1738 19.6679 40.0921 19.3354C40.08 19.2872 40.08 19.2872 40.0675 19.2381C40.0418 19.136 40.0165 19.0337 39.9911 18.9315C39.9741 18.8638 39.9571 18.7961 39.94 18.7284C39.9072 18.5979 39.8746 18.4673 39.8423 18.3367C39.8155 18.2284 39.7883 18.1202 39.7603 18.0122C39.7548 17.9903 39.7492 17.9684 39.7434 17.9459C39.7291 17.89 39.7147 17.8341 39.7002 17.7783C39.6499 17.5256 39.6334 17.2658 39.7687 17.0399C39.8578 16.931 39.9204 16.9008 40.0569 16.8795C40.1084 16.8711 40.1084 16.8711 40.161 16.8625C40.1985 16.857 40.2359 16.8514 40.2745 16.8456C40.3142 16.8393 40.354 16.833 40.3938 16.8266C40.4999 16.8097 40.6061 16.7935 40.7123 16.7773C40.8176 16.7613 40.9228 16.7447 41.028 16.7281C41.2684 16.6905 41.5088 16.6538 41.7493 16.6172C41.941 16.588 42.1326 16.5586 42.3243 16.5293C42.3723 16.5219 42.4202 16.5146 42.4682 16.5072C42.8876 16.443 43.3068 16.3777 43.7259 16.3116C44.1509 16.2445 44.576 16.178 45.0012 16.1124C45.0234 16.1089 45.0457 16.1055 45.0686 16.102C45.289 16.0679 45.5094 16.0339 45.7299 16C45.8115 15.9874 45.8931 15.9748 45.9748 15.9623C46.0305 15.9537 46.0862 15.9451 46.1419 15.9366C46.3364 15.9066 46.5302 15.8746 46.7237 15.8386C46.8246 15.8257 46.8865 15.839 46.9751 15.8897Z" fill="#7C7C7C"/>
<path d="M38.1079 5.62969C38.3011 5.73121 38.4701 5.86725 38.6373 6.00755C38.7926 6.13605 38.9546 6.25598 39.1149 6.37789C39.1847 6.431 39.2543 6.48431 39.3238 6.53768C39.3522 6.55929 39.3805 6.58091 39.4098 6.60318C39.4773 6.66339 39.5225 6.72137 39.5703 6.79873C39.5855 6.82221 39.6007 6.8457 39.6163 6.8699C39.7275 7.1717 39.5969 7.49341 39.5123 7.78735C39.4977 7.83897 39.4832 7.8906 39.4687 7.94224C39.4304 8.07851 39.3917 8.21464 39.3528 8.35074C39.2919 8.56433 39.2318 8.77815 39.1715 8.99191C39.149 9.07187 39.1263 9.15181 39.1037 9.23174C38.9818 9.663 38.8643 10.0954 38.7486 10.5285C38.68 10.7854 38.6101 11.0417 38.5361 11.2971C38.4502 11.5938 38.3685 11.8917 38.2877 12.1899C38.161 12.6573 38.0322 13.1239 37.9003 13.5897C37.8924 13.6177 37.8845 13.6458 37.8763 13.6746C37.8554 13.7485 37.8343 13.8223 37.8132 13.8962C37.8073 13.917 37.8014 13.9378 37.7953 13.9592C37.7747 14.0306 37.755 14.0981 37.7224 14.1648C37.7028 14.1648 37.6832 14.1648 37.6631 14.1648C37.6631 14.1848 37.6631 14.2047 37.6631 14.2253C37.5738 14.2776 37.5064 14.2955 37.4036 14.2972C37.3799 14.2981 37.3562 14.2989 37.3317 14.2998C37.131 14.2664 36.9568 14.134 36.7901 14.021C36.7462 13.9916 36.7023 13.9623 36.6583 13.933C36.6344 13.917 36.6105 13.9009 36.5858 13.8845C36.4977 13.826 36.409 13.7684 36.3203 13.7109C36.288 13.6899 36.2556 13.669 36.2223 13.6473C36.1589 13.6062 36.0954 13.5652 36.0318 13.5242C35.3292 13.0679 35.3292 13.0679 35.1852 12.6893C35.1388 12.4504 35.199 12.2714 35.2832 12.0499C35.2935 12.0218 35.3038 11.9937 35.3144 11.9647C35.3746 11.8016 35.4376 11.6398 35.5013 11.4781C35.5469 11.362 35.59 11.245 35.6334 11.128C35.6694 11.0346 35.7067 10.9421 35.7447 10.8496C35.8291 10.6436 35.9094 10.4361 35.9893 10.2283C36.0059 10.1854 36.0224 10.1426 36.0389 10.0998C36.0959 9.95156 36.1529 9.80334 36.2099 9.65511C36.232 9.59767 36.2541 9.54022 36.2762 9.48278C36.4125 9.12813 36.5488 8.77345 36.685 8.41876C36.7779 8.17706 36.8707 7.93538 36.9636 7.69371C36.9768 7.65944 36.9899 7.62518 37.0035 7.58987C37.1059 7.32345 37.1059 7.32345 37.1564 7.19192C37.1799 7.13084 37.2034 7.06976 37.2269 7.00868C37.2495 6.94964 37.2723 6.89059 37.295 6.83156C37.3532 6.68017 37.4111 6.52866 37.4685 6.37695C37.4804 6.34563 37.4923 6.31432 37.5045 6.28206C37.5271 6.22275 37.5495 6.1634 37.5718 6.10402C37.6338 5.94098 37.6972 5.78206 37.7817 5.62969C37.8993 5.58969 37.9908 5.59477 38.1079 5.62969Z" fill="#BDBDBD"/>
</g>
<defs>
<clipPath id="clip0_309_555">
<rect width="50" height="50" fill="white"/>
</clipPath>
</defs>
</svg>
